<?xml version="1.0" standalone="no"?>
<!DOCTYPE svg PUBLIC "-//W3C//DTD SVG 20010904//EN"
 "http://www.w3.org/TR/2001/REC-SVG-20010904/DTD/svg10.dtd">
<svg version="1.0" xmlns="http://www.w3.org/2000/svg"
 width="512.000000pt" height="512.000000pt" viewBox="0 0 512.000000 512.000000"
 preserveAspectRatio="xMidYMid meet">
<metadata>
Created by potrace 1.14, written by Peter Selinger 2001-2017
</metadata>
<g transform="translate(0.000000,512.000000) scale(0.100000,-0.100000)"
fill="#000000" stroke="none">
<path d="M415 5110 c-153 -31 -295 -140 -362 -280 -56 -116 -53 5 -50 -2295 2
-2073 3 -2131 21 -2180 70 -181 200 -300 376 -341 73 -18 4227 -20 4312 -3 55
11 168 63 208 95 75 60 138 149 173 241 l22 58 2 2135 c1 1846 0 2142 -13
2190 -50 187 -179 317 -373 374 -48 14 -264 16 -2165 15 -1161 -1 -2129 -5
-2151 -9z"/>
</g>
</svg>
